<?xml version="1.0" encoding="UTF-8" standalone="no"?>
<!DOCTYPE svg PUBLIC "-//W3C//DTD SVG 1.1//EN" "http://www.w3.org/Graphics/SVG/1.1/DTD/svg11.dtd">
<svg width="100%" height="100%" viewBox="0 0 48 48" version="1.1" xmlns="http://www.w3.org/2000/svg" xmlns:xlink="http://www.w3.org/1999/xlink" xml:space="preserve" xmlns:serif="http://www.serif.com/" style="fill-rule:evenodd;clip-rule:evenodd;stroke-linejoin:round;stroke-miterlimit:2;">
    <g transform="matrix(2.81237,0,0,2.81237,-9.74896,-9.74872)">
        <path d="M11.482,4.29L7.087,11.516C7.03,11.609 7,11.717 7,11.826C7,12.038 7.113,12.235 7.297,12.342L11.692,14.916C11.882,15.028 12.118,15.028 12.308,14.916L16.703,12.342C16.992,12.172 17.087,11.802 16.913,11.516L12.519,4.29C12.409,4.11 12.212,4 12,4C11.789,4 11.592,4.11 11.482,4.29Z" style="fill:rgb(51,255,153);fill-rule:nonzero;"/>
    </g>
    <g transform="matrix(2.81237,0,0,2.81237,-9.74896,-9.74872)">
        <path d="M15.79,15.01C15.79,14.999 15.788,14.989 15.787,14.979L15.781,14.948L15.771,14.913C15.763,14.891 15.753,14.869 15.741,14.849L15.728,14.829C15.703,14.791 15.67,14.758 15.632,14.732L15.612,14.72C15.6,14.712 15.586,14.706 15.573,14.7L15.546,14.69C15.514,14.679 15.481,14.673 15.448,14.67L15.413,14.67L15.387,14.673L15.347,14.679C15.344,14.679 15.341,14.682 15.337,14.683C15.297,14.693 15.258,14.709 15.223,14.732L12.331,16.436C12.127,16.556 11.873,16.556 11.669,16.436L8.777,14.732C8.742,14.709 8.704,14.692 8.663,14.682L8.653,14.679L8.613,14.673C8.604,14.672 8.596,14.672 8.587,14.671L8.552,14.671L8.52,14.673L8.49,14.679L8.454,14.689L8.427,14.699C8.414,14.705 8.401,14.711 8.389,14.719L8.369,14.732C8.331,14.757 8.298,14.79 8.272,14.828L8.26,14.848C8.252,14.862 8.245,14.874 8.24,14.887C8.235,14.895 8.233,14.904 8.229,14.913L8.219,14.948C8.216,14.958 8.214,14.968 8.213,14.978C8.211,14.989 8.21,14.999 8.21,15.01L8.21,15.044C8.21,15.054 8.212,15.062 8.213,15.071L8.219,15.11C8.219,15.115 8.222,15.12 8.223,15.124C8.235,15.167 8.253,15.207 8.28,15.244L11.468,19.727C11.59,19.899 11.788,20.001 11.999,20.001C12.21,20.001 12.408,19.899 12.53,19.727L15.718,15.244C15.744,15.208 15.764,15.167 15.775,15.124C15.775,15.12 15.778,15.114 15.779,15.11L15.785,15.071L15.788,15.044L15.788,15.01L15.79,15.01Z" style="fill:rgb(51,255,153);fill-rule:nonzero;"/>
    </g>
</svg>
